<svg width="20" height="19" viewBox="0 0 20 19" fill="none" xmlns="http://www.w3.org/2000/svg">
<path d="M10 18.3281L8.54688 17.0156C6.89062 15.5156 5.6875 14.4062 4.9375 13.6875C4.1875 12.9688 3.34375 12.0781 2.40625 11.0156C1.5 9.95312 0.875 9 0.53125 8.15625C0.1875 7.28125 0.015625 6.39062 0.015625 5.48438C0.015625 3.95312 0.53125 2.65625 1.5625 1.59375C2.625 0.53125 3.9375 0 5.5 0C7.3125 0 8.8125 0.703125 10 2.10938C11.1875 0.703125 12.6875 0 14.5 0C16.0625 0 17.3594 0.53125 18.3906 1.59375C19.4531 2.65625 19.9844 3.95312 19.9844 5.48438C19.9844 6.70312 19.5781 7.96875 18.7656 9.28125C17.9531 10.5938 17.0625 11.7344 16.0938 12.7031C15.1562 13.6719 13.6094 15.125 11.4531 17.0625L10 18.3281Z" fill="black"/>
</svg>
