<svg width="20" height="19" viewBox="0 0 20 19" fill="none" xmlns="http://www.w3.org/2000/svg">
<path d="M10.0938 15.5625C11.5938 14.2188 12.7031 13.2031 13.4219 12.5156C14.1406 11.8281 14.9219 11.0156 15.7656 10.0781C16.6094 9.14062 17.1875 8.3125 17.5 7.59375C17.8438 6.875 18.0156 6.17188 18.0156 5.48438C18.0156 4.48438 17.6719 3.65625 16.9844 3C16.3281 2.34375 15.5 2.01562 14.5 2.01562C13.7188 2.01562 12.9844 2.23438 12.2969 2.67188C11.6406 3.10937 11.1875 3.67187 10.9375 4.35938H9.0625C8.8125 3.67187 8.34375 3.10937 7.65625 2.67188C7 2.23438 6.28125 2.01562 5.5 2.01562C4.5 2.01562 3.65625 2.34375 2.96875 3C2.3125 3.65625 1.98438 4.48438 1.98438 5.48438C1.98438 6.17188 2.14062 6.875 2.45312 7.59375C2.79688 8.3125 3.39062 9.14062 4.23438 10.0781C5.07812 11.0156 5.85938 11.8281 6.57812 12.5156C7.29688 13.2031 8.40625 14.2188 9.90625 15.5625L10 15.6562L10.0938 15.5625ZM14.5 0C16.0625 0 17.3594 0.53125 18.3906 1.59375C19.4531 2.65625 19.9844 3.95312 19.9844 5.48438C19.9844 6.39062 19.8125 7.28125 19.4688 8.15625C19.125 9 18.4844 9.95312 17.5469 11.0156C16.6406 12.0781 15.8125 12.9688 15.0625 13.6875C14.3125 14.4062 13.1094 15.5156 11.4531 17.0156L10 18.3281L8.54688 17.0625C6.39062 15.125 4.82812 13.6719 3.85938 12.7031C2.92188 11.7344 2.04688 10.5938 1.23438 9.28125C0.421875 7.96875 0.015625 6.70312 0.015625 5.48438C0.015625 3.95312 0.53125 2.65625 1.5625 1.59375C2.625 0.53125 3.9375 0 5.5 0C7.3125 0 8.8125 0.703125 10 2.10938C11.1875 0.703125 12.6875 0 14.5 0Z" fill="black"/>
</svg>
